<?xml version="1.0" encoding="UTF-8"?><svg id="Camada_1" xmlns="http://www.w3.org/2000/svg" viewBox="0 0 86.79 34.73"><defs><style>.cls-1{fill:#fff;}</style></defs><g><path class="cls-1" d="M0,8.18H13.28v2.39H2.79v6.8H13.28v2.39H2.79v7.28H13.28v2.39H0V8.18ZM7.97,0l1.91,1.12-2.6,3.72-1.22-.72L7.97,0Z"/><path class="cls-1" d="M15.93,8.18h2.66V29.42h-2.66V8.18Z"/><path class="cls-1" d="M21.77,14.82h2.66v2.39h1.33c.48-1.59,1.81-2.71,3.72-2.71,3.19,0,5.04,3.13,5.04,7.59s-1.86,7.59-5.02,7.59c-1.89,0-3.19-1.12-3.74-2.71h-1.33v7.75h-2.66V14.82Zm6.37,12.48c2.18,0,3.72-2.15,3.72-5.2s-1.54-5.2-3.72-5.2-3.69,2.12-3.72,5.15c.03,3.08,1.54,5.26,3.72,5.26Z"/><path class="cls-1" d="M36.77,8.18h2.66v3.19h-2.66v-3.19Zm0,6.64h2.66v14.6h-2.66V14.82Z"/><path class="cls-1" d="M53.87,25.17c0,2.66-2.55,4.67-5.74,4.67-3.66,0-6.32-2.73-6.32-6.19h2.66c0,2.15,1.57,3.8,3.85,3.8,1.62,0,2.89-.82,2.89-2.15,0-1.14-1.01-1.65-2.23-1.91l-2.76-.61c-2.6-.64-4.14-1.96-4.14-4.01,0-2.66,2.58-4.38,5.39-4.38,3.45,0,5.87,2.63,5.87,5.92h-2.66c0-1.99-1.35-3.58-3.4-3.58-1.27,0-2.55,.64-2.55,1.99,0,.77,.42,1.33,1.7,1.75,.8,.27,1.91,.53,2.76,.69,2.68,.5,4.67,1.38,4.67,4.01Z"/></g><g><path class="cls-1" d="M62.37,29.5c-2.42,0-4.01-2.03-4.01-4.91s1.59-4.91,4.01-4.91c2.01,0,3.24,1.39,3.57,3.52h-1.29c-.26-1.47-.97-2.41-2.27-2.41-1.68,0-2.74,1.57-2.74,3.79s1.07,3.79,2.74,3.79c1.3,0,2-.95,2.27-2.41h1.29c-.34,2.12-1.56,3.52-3.57,3.52Z"/><path class="cls-1" d="M67.02,22.79h1.2v1.08h.6c.24-.78,.48-1.22,1.47-1.22,.23,0,.51,.02,.69,.06v1.29c-.26-.16-.69-.28-1.09-.28-1.04,0-1.68,.84-1.68,2.35v3.3h-1.2v-6.58Z"/><path class="cls-1" d="M72.08,23.87h-.86v-1.08h.86v-1.68h1.2v1.68h2.53v1.08h-2.53v2.99h-1.2v-2.99Zm2.66,5.51h1.14v-1.08h-1.14c-.85,0-1.46-.6-1.46-1.44h-1.2c0,1.47,1.1,2.51,2.66,2.51Z"/><path class="cls-1" d="M76.23,22.79h1.26l1.35,3.48c.19,.5,.2,1.19,.2,1.72h.72c0-.54,.01-1.23,.2-1.72l1.35-3.48h1.26l-2.54,6.58h-1.27l-2.54-6.58Z"/><path class="cls-1" d="M84.52,22.68l.37-1.2-.85,.92-.39,.23-.47-.81,.4-.23,1.21-.28-1.21-.28-.4-.23,.47-.81,.39,.23,.85,.92-.37-1.2v-.45h.93v.45l-.37,1.2,.85-.92,.4-.23,.47,.81-.39,.23-1.21,.28,1.21,.28,.39,.23-.47,.81-.4-.23-.85-.92,.37,1.2v.45h-.93v-.45Z"/></g></svg>